<mxfile host="app.diagrams.net" modified="2021-11-25T19:25:37.915Z" agent="5.0 (Windows)" etag="0bFZhzaAi15eFnPbRg4C" version="15.8.6" type="github">
  <diagram id="C5RBs43oDa-KdzZeNtuy" name="Page-1">
    <mxGraphModel dx="2047" dy="1111" grid="1" gridSize="10" guides="1" tooltips="1" connect="1" arrows="1" fold="1" page="1" pageScale="1" pageWidth="827" pageHeight="1169" math="0" shadow="0">
      <root>
        <mxCell id="WIyWlLk6GJQsqaUBKTNV-0" />
        <mxCell id="WIyWlLk6GJQsqaUBKTNV-1" parent="WIyWlLk6GJQsqaUBKTNV-0" />
        <mxCell id="WIyWlLk6GJQsqaUBKTNV-2" value="" style="rounded=0;html=1;jettySize=auto;orthogonalLoop=1;fontSize=11;endArrow=block;endFill=0;endSize=8;strokeWidth=1;shadow=0;labelBackgroundColor=none;edgeStyle=orthogonalEdgeStyle;" parent="WIyWlLk6GJQsqaUBKTNV-1" source="WIyWlLk6GJQsqaUBKTNV-3" target="WIyWlLk6GJQsqaUBKTNV-6" edge="1">
          <mxGeometry relative="1" as="geometry" />
        </mxCell>
        <mxCell id="WIyWlLk6GJQsqaUBKTNV-3" value="Game Idea" style="rounded=1;whiteSpace=wrap;html=1;fontSize=12;glass=0;strokeWidth=1;shadow=0;" parent="WIyWlLk6GJQsqaUBKTNV-1" vertex="1">
          <mxGeometry x="160" y="80" width="120" height="40" as="geometry" />
        </mxCell>
        <mxCell id="1II-Uo7MVgOibuzqTC6q-0" style="edgeStyle=orthogonalEdgeStyle;rounded=0;orthogonalLoop=1;jettySize=auto;html=1;" edge="1" parent="WIyWlLk6GJQsqaUBKTNV-1" source="WIyWlLk6GJQsqaUBKTNV-6" target="WIyWlLk6GJQsqaUBKTNV-7">
          <mxGeometry relative="1" as="geometry" />
        </mxCell>
        <mxCell id="WIyWlLk6GJQsqaUBKTNV-6" value="Talk about game idea" style="rhombus;whiteSpace=wrap;html=1;shadow=0;fontFamily=Helvetica;fontSize=12;align=center;strokeWidth=1;spacing=6;spacingTop=-4;" parent="WIyWlLk6GJQsqaUBKTNV-1" vertex="1">
          <mxGeometry x="170" y="170" width="100" height="80" as="geometry" />
        </mxCell>
        <mxCell id="1II-Uo7MVgOibuzqTC6q-1" style="edgeStyle=orthogonalEdgeStyle;rounded=0;orthogonalLoop=1;jettySize=auto;html=1;" edge="1" parent="WIyWlLk6GJQsqaUBKTNV-1" source="WIyWlLk6GJQsqaUBKTNV-7" target="WIyWlLk6GJQsqaUBKTNV-12">
          <mxGeometry relative="1" as="geometry" />
        </mxCell>
        <mxCell id="WIyWlLk6GJQsqaUBKTNV-7" value="make game design document on game idea" style="rounded=1;whiteSpace=wrap;html=1;fontSize=12;glass=0;strokeWidth=1;shadow=0;" parent="WIyWlLk6GJQsqaUBKTNV-1" vertex="1">
          <mxGeometry x="320" y="190" width="120" height="40" as="geometry" />
        </mxCell>
        <mxCell id="WIyWlLk6GJQsqaUBKTNV-8" value="No" style="rounded=0;html=1;jettySize=auto;orthogonalLoop=1;fontSize=11;endArrow=block;endFill=0;endSize=8;strokeWidth=1;shadow=0;labelBackgroundColor=none;edgeStyle=orthogonalEdgeStyle;" parent="WIyWlLk6GJQsqaUBKTNV-1" source="WIyWlLk6GJQsqaUBKTNV-10" target="1II-Uo7MVgOibuzqTC6q-2" edge="1">
          <mxGeometry x="0.3333" y="20" relative="1" as="geometry">
            <mxPoint as="offset" />
            <mxPoint x="530" y="430" as="targetPoint" />
            <Array as="points">
              <mxPoint x="220" y="400" />
              <mxPoint x="550" y="400" />
            </Array>
          </mxGeometry>
        </mxCell>
        <mxCell id="1II-Uo7MVgOibuzqTC6q-17" style="edgeStyle=orthogonalEdgeStyle;rounded=0;orthogonalLoop=1;jettySize=auto;html=1;" edge="1" parent="WIyWlLk6GJQsqaUBKTNV-1" source="WIyWlLk6GJQsqaUBKTNV-10" target="WIyWlLk6GJQsqaUBKTNV-6">
          <mxGeometry relative="1" as="geometry" />
        </mxCell>
        <mxCell id="1II-Uo7MVgOibuzqTC6q-58" value="" style="edgeStyle=orthogonalEdgeStyle;rounded=0;orthogonalLoop=1;jettySize=auto;html=1;" edge="1" parent="WIyWlLk6GJQsqaUBKTNV-1" source="WIyWlLk6GJQsqaUBKTNV-10" target="1II-Uo7MVgOibuzqTC6q-57">
          <mxGeometry relative="1" as="geometry" />
        </mxCell>
        <mxCell id="WIyWlLk6GJQsqaUBKTNV-10" value="&lt;div&gt;Dose the &lt;br&gt;&lt;/div&gt;&lt;div&gt;game still look&lt;/div&gt;&lt;div&gt;good&lt;br&gt;&lt;/div&gt;" style="rhombus;whiteSpace=wrap;html=1;shadow=0;fontFamily=Helvetica;fontSize=12;align=center;strokeWidth=1;spacing=6;spacingTop=-4;" parent="WIyWlLk6GJQsqaUBKTNV-1" vertex="1">
          <mxGeometry x="160" y="290" width="110" height="90" as="geometry" />
        </mxCell>
        <mxCell id="1II-Uo7MVgOibuzqTC6q-12" style="edgeStyle=orthogonalEdgeStyle;rounded=0;orthogonalLoop=1;jettySize=auto;html=1;" edge="1" parent="WIyWlLk6GJQsqaUBKTNV-1" source="WIyWlLk6GJQsqaUBKTNV-11" target="1II-Uo7MVgOibuzqTC6q-6">
          <mxGeometry relative="1" as="geometry" />
        </mxCell>
        <mxCell id="WIyWlLk6GJQsqaUBKTNV-11" value="Concept art" style="rounded=1;whiteSpace=wrap;html=1;fontSize=12;glass=0;strokeWidth=1;shadow=0;" parent="WIyWlLk6GJQsqaUBKTNV-1" vertex="1">
          <mxGeometry x="80" y="430" width="120" height="40" as="geometry" />
        </mxCell>
        <mxCell id="1II-Uo7MVgOibuzqTC6q-4" style="edgeStyle=orthogonalEdgeStyle;rounded=0;orthogonalLoop=1;jettySize=auto;html=1;" edge="1" parent="WIyWlLk6GJQsqaUBKTNV-1" source="WIyWlLk6GJQsqaUBKTNV-12" target="WIyWlLk6GJQsqaUBKTNV-10">
          <mxGeometry relative="1" as="geometry" />
        </mxCell>
        <mxCell id="WIyWlLk6GJQsqaUBKTNV-12" value="Present completed document " style="rounded=1;whiteSpace=wrap;html=1;fontSize=12;glass=0;strokeWidth=1;shadow=0;" parent="WIyWlLk6GJQsqaUBKTNV-1" vertex="1">
          <mxGeometry x="320" y="310" width="120" height="40" as="geometry" />
        </mxCell>
        <mxCell id="1II-Uo7MVgOibuzqTC6q-3" style="edgeStyle=orthogonalEdgeStyle;rounded=0;orthogonalLoop=1;jettySize=auto;html=1;" edge="1" parent="WIyWlLk6GJQsqaUBKTNV-1" source="1II-Uo7MVgOibuzqTC6q-2" target="WIyWlLk6GJQsqaUBKTNV-12">
          <mxGeometry relative="1" as="geometry" />
        </mxCell>
        <mxCell id="1II-Uo7MVgOibuzqTC6q-2" value="adjust document " style="rounded=1;whiteSpace=wrap;html=1;fontSize=12;glass=0;strokeWidth=1;shadow=0;" vertex="1" parent="WIyWlLk6GJQsqaUBKTNV-1">
          <mxGeometry x="480" y="310" width="120" height="40" as="geometry" />
        </mxCell>
        <mxCell id="1II-Uo7MVgOibuzqTC6q-8" value="" style="edgeStyle=orthogonalEdgeStyle;rounded=0;orthogonalLoop=1;jettySize=auto;html=1;" edge="1" parent="WIyWlLk6GJQsqaUBKTNV-1" source="1II-Uo7MVgOibuzqTC6q-6" target="1II-Uo7MVgOibuzqTC6q-7">
          <mxGeometry relative="1" as="geometry" />
        </mxCell>
        <mxCell id="1II-Uo7MVgOibuzqTC6q-13" style="edgeStyle=orthogonalEdgeStyle;rounded=0;orthogonalLoop=1;jettySize=auto;html=1;entryX=0.454;entryY=1.004;entryDx=0;entryDy=0;entryPerimeter=0;" edge="1" parent="WIyWlLk6GJQsqaUBKTNV-1" source="1II-Uo7MVgOibuzqTC6q-6" target="WIyWlLk6GJQsqaUBKTNV-11">
          <mxGeometry relative="1" as="geometry">
            <mxPoint x="360" y="610" as="targetPoint" />
            <Array as="points">
              <mxPoint x="370" y="540" />
              <mxPoint x="134" y="540" />
            </Array>
          </mxGeometry>
        </mxCell>
        <mxCell id="1II-Uo7MVgOibuzqTC6q-6" value="is the art liked" style="rounded=1;whiteSpace=wrap;html=1;fontSize=12;glass=0;strokeWidth=1;shadow=0;arcSize=0;" vertex="1" parent="WIyWlLk6GJQsqaUBKTNV-1">
          <mxGeometry x="310" y="430" width="120" height="40" as="geometry" />
        </mxCell>
        <mxCell id="1II-Uo7MVgOibuzqTC6q-11" style="edgeStyle=orthogonalEdgeStyle;rounded=0;orthogonalLoop=1;jettySize=auto;html=1;entryX=0.782;entryY=0.989;entryDx=0;entryDy=0;entryPerimeter=0;exitX=0.5;exitY=0;exitDx=0;exitDy=0;" edge="1" parent="WIyWlLk6GJQsqaUBKTNV-1" source="1II-Uo7MVgOibuzqTC6q-7" target="1II-Uo7MVgOibuzqTC6q-2">
          <mxGeometry relative="1" as="geometry" />
        </mxCell>
        <mxCell id="1II-Uo7MVgOibuzqTC6q-19" value="" style="edgeStyle=orthogonalEdgeStyle;rounded=0;orthogonalLoop=1;jettySize=auto;html=1;" edge="1" parent="WIyWlLk6GJQsqaUBKTNV-1" source="1II-Uo7MVgOibuzqTC6q-7" target="1II-Uo7MVgOibuzqTC6q-18">
          <mxGeometry relative="1" as="geometry" />
        </mxCell>
        <mxCell id="1II-Uo7MVgOibuzqTC6q-22" value="" style="edgeStyle=orthogonalEdgeStyle;rounded=0;orthogonalLoop=1;jettySize=auto;html=1;" edge="1" parent="WIyWlLk6GJQsqaUBKTNV-1" source="1II-Uo7MVgOibuzqTC6q-7" target="1II-Uo7MVgOibuzqTC6q-21">
          <mxGeometry relative="1" as="geometry" />
        </mxCell>
        <mxCell id="1II-Uo7MVgOibuzqTC6q-7" value="should it be added to document " style="rhombus;whiteSpace=wrap;html=1;rounded=1;shadow=0;strokeWidth=1;glass=0;arcSize=0;" vertex="1" parent="WIyWlLk6GJQsqaUBKTNV-1">
          <mxGeometry x="530" y="410" width="110" height="100" as="geometry" />
        </mxCell>
        <mxCell id="1II-Uo7MVgOibuzqTC6q-16" style="edgeStyle=orthogonalEdgeStyle;rounded=0;orthogonalLoop=1;jettySize=auto;html=1;" edge="1" parent="WIyWlLk6GJQsqaUBKTNV-1" source="1II-Uo7MVgOibuzqTC6q-14" target="WIyWlLk6GJQsqaUBKTNV-11">
          <mxGeometry relative="1" as="geometry">
            <Array as="points">
              <mxPoint x="-90" y="380" />
              <mxPoint x="140" y="380" />
            </Array>
          </mxGeometry>
        </mxCell>
        <mxCell id="1II-Uo7MVgOibuzqTC6q-23" style="edgeStyle=orthogonalEdgeStyle;rounded=0;orthogonalLoop=1;jettySize=auto;html=1;entryX=0.006;entryY=0.643;entryDx=0;entryDy=0;entryPerimeter=0;" edge="1" parent="WIyWlLk6GJQsqaUBKTNV-1" source="1II-Uo7MVgOibuzqTC6q-14" target="1II-Uo7MVgOibuzqTC6q-21">
          <mxGeometry relative="1" as="geometry">
            <Array as="points">
              <mxPoint x="-100" y="745" />
            </Array>
          </mxGeometry>
        </mxCell>
        <mxCell id="1II-Uo7MVgOibuzqTC6q-14" value="Do you need art" style="rhombus;whiteSpace=wrap;html=1;shadow=0;strokeWidth=1;spacing=6;spacingTop=-4;" vertex="1" parent="WIyWlLk6GJQsqaUBKTNV-1">
          <mxGeometry x="-140" y="250" width="100" height="90" as="geometry" />
        </mxCell>
        <mxCell id="1II-Uo7MVgOibuzqTC6q-20" style="edgeStyle=orthogonalEdgeStyle;rounded=0;orthogonalLoop=1;jettySize=auto;html=1;entryX=0.954;entryY=-0.025;entryDx=0;entryDy=0;entryPerimeter=0;exitX=0;exitY=0.5;exitDx=0;exitDy=0;" edge="1" parent="WIyWlLk6GJQsqaUBKTNV-1" source="1II-Uo7MVgOibuzqTC6q-18" target="WIyWlLk6GJQsqaUBKTNV-12">
          <mxGeometry relative="1" as="geometry">
            <Array as="points">
              <mxPoint x="670" y="240" />
              <mxPoint x="470" y="240" />
              <mxPoint x="470" y="309" />
            </Array>
          </mxGeometry>
        </mxCell>
        <mxCell id="1II-Uo7MVgOibuzqTC6q-18" value="Art bible" style="rhombus;whiteSpace=wrap;html=1;rounded=1;shadow=0;strokeWidth=1;glass=0;arcSize=0;" vertex="1" parent="WIyWlLk6GJQsqaUBKTNV-1">
          <mxGeometry x="670" y="160" width="80" height="80" as="geometry" />
        </mxCell>
        <mxCell id="1II-Uo7MVgOibuzqTC6q-25" value="" style="edgeStyle=orthogonalEdgeStyle;rounded=0;orthogonalLoop=1;jettySize=auto;html=1;" edge="1" parent="WIyWlLk6GJQsqaUBKTNV-1" source="1II-Uo7MVgOibuzqTC6q-21" target="1II-Uo7MVgOibuzqTC6q-24">
          <mxGeometry relative="1" as="geometry" />
        </mxCell>
        <mxCell id="1II-Uo7MVgOibuzqTC6q-29" value="" style="edgeStyle=orthogonalEdgeStyle;rounded=0;orthogonalLoop=1;jettySize=auto;html=1;" edge="1" parent="WIyWlLk6GJQsqaUBKTNV-1" source="1II-Uo7MVgOibuzqTC6q-21" target="1II-Uo7MVgOibuzqTC6q-28">
          <mxGeometry relative="1" as="geometry" />
        </mxCell>
        <mxCell id="1II-Uo7MVgOibuzqTC6q-21" value="Concept testing" style="rounded=1;whiteSpace=wrap;html=1;shadow=0;strokeWidth=1;glass=0;arcSize=0;" vertex="1" parent="WIyWlLk6GJQsqaUBKTNV-1">
          <mxGeometry x="430" y="700" width="160" height="70" as="geometry" />
        </mxCell>
        <mxCell id="1II-Uo7MVgOibuzqTC6q-27" value="" style="edgeStyle=orthogonalEdgeStyle;rounded=0;orthogonalLoop=1;jettySize=auto;html=1;" edge="1" parent="WIyWlLk6GJQsqaUBKTNV-1" source="1II-Uo7MVgOibuzqTC6q-24" target="1II-Uo7MVgOibuzqTC6q-26">
          <mxGeometry relative="1" as="geometry" />
        </mxCell>
        <mxCell id="1II-Uo7MVgOibuzqTC6q-24" value="Concept is liked " style="whiteSpace=wrap;html=1;rounded=1;shadow=0;strokeWidth=1;glass=0;arcSize=0;" vertex="1" parent="WIyWlLk6GJQsqaUBKTNV-1">
          <mxGeometry x="690" y="705" width="120" height="60" as="geometry" />
        </mxCell>
        <mxCell id="1II-Uo7MVgOibuzqTC6q-33" value="" style="edgeStyle=orthogonalEdgeStyle;rounded=0;orthogonalLoop=1;jettySize=auto;html=1;" edge="1" parent="WIyWlLk6GJQsqaUBKTNV-1" source="1II-Uo7MVgOibuzqTC6q-26" target="1II-Uo7MVgOibuzqTC6q-32">
          <mxGeometry relative="1" as="geometry" />
        </mxCell>
        <mxCell id="1II-Uo7MVgOibuzqTC6q-26" value="make game play" style="whiteSpace=wrap;html=1;rounded=1;shadow=0;strokeWidth=1;glass=0;arcSize=0;" vertex="1" parent="WIyWlLk6GJQsqaUBKTNV-1">
          <mxGeometry x="690" y="845" width="120" height="60" as="geometry" />
        </mxCell>
        <mxCell id="1II-Uo7MVgOibuzqTC6q-30" style="edgeStyle=orthogonalEdgeStyle;rounded=0;orthogonalLoop=1;jettySize=auto;html=1;entryX=-0.023;entryY=0.129;entryDx=0;entryDy=0;entryPerimeter=0;" edge="1" parent="WIyWlLk6GJQsqaUBKTNV-1" source="1II-Uo7MVgOibuzqTC6q-28" target="1II-Uo7MVgOibuzqTC6q-21">
          <mxGeometry relative="1" as="geometry">
            <Array as="points">
              <mxPoint x="370" y="880" />
              <mxPoint x="370" y="709" />
            </Array>
          </mxGeometry>
        </mxCell>
        <mxCell id="1II-Uo7MVgOibuzqTC6q-28" value="Concept night right" style="whiteSpace=wrap;html=1;rounded=1;shadow=0;strokeWidth=1;glass=0;arcSize=0;" vertex="1" parent="WIyWlLk6GJQsqaUBKTNV-1">
          <mxGeometry x="450" y="855" width="120" height="60" as="geometry" />
        </mxCell>
        <mxCell id="1II-Uo7MVgOibuzqTC6q-35" value="" style="edgeStyle=orthogonalEdgeStyle;rounded=0;orthogonalLoop=1;jettySize=auto;html=1;" edge="1" parent="WIyWlLk6GJQsqaUBKTNV-1" source="1II-Uo7MVgOibuzqTC6q-32" target="1II-Uo7MVgOibuzqTC6q-34">
          <mxGeometry relative="1" as="geometry" />
        </mxCell>
        <mxCell id="1II-Uo7MVgOibuzqTC6q-39" value="" style="edgeStyle=orthogonalEdgeStyle;rounded=0;orthogonalLoop=1;jettySize=auto;html=1;" edge="1" parent="WIyWlLk6GJQsqaUBKTNV-1" source="1II-Uo7MVgOibuzqTC6q-32" target="1II-Uo7MVgOibuzqTC6q-38">
          <mxGeometry relative="1" as="geometry" />
        </mxCell>
        <mxCell id="1II-Uo7MVgOibuzqTC6q-32" value="Game Play testing" style="whiteSpace=wrap;html=1;rounded=1;shadow=0;strokeWidth=1;glass=0;arcSize=0;" vertex="1" parent="WIyWlLk6GJQsqaUBKTNV-1">
          <mxGeometry x="560" y="970" width="120" height="60" as="geometry" />
        </mxCell>
        <mxCell id="1II-Uo7MVgOibuzqTC6q-37" value="" style="edgeStyle=orthogonalEdgeStyle;rounded=0;orthogonalLoop=1;jettySize=auto;html=1;" edge="1" parent="WIyWlLk6GJQsqaUBKTNV-1" source="1II-Uo7MVgOibuzqTC6q-34" target="1II-Uo7MVgOibuzqTC6q-36">
          <mxGeometry relative="1" as="geometry" />
        </mxCell>
        <mxCell id="1II-Uo7MVgOibuzqTC6q-34" value="its good" style="whiteSpace=wrap;html=1;rounded=1;shadow=0;strokeWidth=1;glass=0;arcSize=0;" vertex="1" parent="WIyWlLk6GJQsqaUBKTNV-1">
          <mxGeometry x="360" y="970" width="120" height="60" as="geometry" />
        </mxCell>
        <mxCell id="1II-Uo7MVgOibuzqTC6q-44" value="" style="edgeStyle=orthogonalEdgeStyle;rounded=0;orthogonalLoop=1;jettySize=auto;html=1;" edge="1" parent="WIyWlLk6GJQsqaUBKTNV-1" source="1II-Uo7MVgOibuzqTC6q-36" target="1II-Uo7MVgOibuzqTC6q-43">
          <mxGeometry relative="1" as="geometry" />
        </mxCell>
        <mxCell id="1II-Uo7MVgOibuzqTC6q-46" value="" style="edgeStyle=orthogonalEdgeStyle;rounded=0;orthogonalLoop=1;jettySize=auto;html=1;" edge="1" parent="WIyWlLk6GJQsqaUBKTNV-1" source="1II-Uo7MVgOibuzqTC6q-36" target="1II-Uo7MVgOibuzqTC6q-45">
          <mxGeometry relative="1" as="geometry" />
        </mxCell>
        <mxCell id="1II-Uo7MVgOibuzqTC6q-36" value="polish game play" style="rounded=1;whiteSpace=wrap;html=1;shadow=0;strokeWidth=1;glass=0;arcSize=0;" vertex="1" parent="WIyWlLk6GJQsqaUBKTNV-1">
          <mxGeometry x="160" y="970" width="120" height="60" as="geometry" />
        </mxCell>
        <mxCell id="1II-Uo7MVgOibuzqTC6q-41" value="" style="edgeStyle=orthogonalEdgeStyle;rounded=0;orthogonalLoop=1;jettySize=auto;html=1;" edge="1" parent="WIyWlLk6GJQsqaUBKTNV-1" source="1II-Uo7MVgOibuzqTC6q-38" target="1II-Uo7MVgOibuzqTC6q-40">
          <mxGeometry relative="1" as="geometry" />
        </mxCell>
        <mxCell id="1II-Uo7MVgOibuzqTC6q-38" value="its not looking good" style="whiteSpace=wrap;html=1;rounded=1;shadow=0;strokeWidth=1;glass=0;arcSize=0;" vertex="1" parent="WIyWlLk6GJQsqaUBKTNV-1">
          <mxGeometry x="560" y="1110" width="120" height="60" as="geometry" />
        </mxCell>
        <mxCell id="1II-Uo7MVgOibuzqTC6q-42" style="edgeStyle=orthogonalEdgeStyle;rounded=0;orthogonalLoop=1;jettySize=auto;html=1;" edge="1" parent="WIyWlLk6GJQsqaUBKTNV-1" source="1II-Uo7MVgOibuzqTC6q-40" target="1II-Uo7MVgOibuzqTC6q-26">
          <mxGeometry relative="1" as="geometry" />
        </mxCell>
        <mxCell id="1II-Uo7MVgOibuzqTC6q-40" value="protptype better game play" style="whiteSpace=wrap;html=1;rounded=1;shadow=0;strokeWidth=1;glass=0;arcSize=0;" vertex="1" parent="WIyWlLk6GJQsqaUBKTNV-1">
          <mxGeometry x="740" y="1000" width="120" height="60" as="geometry" />
        </mxCell>
        <mxCell id="1II-Uo7MVgOibuzqTC6q-49" value="" style="edgeStyle=orthogonalEdgeStyle;rounded=0;orthogonalLoop=1;jettySize=auto;html=1;" edge="1" parent="WIyWlLk6GJQsqaUBKTNV-1" source="1II-Uo7MVgOibuzqTC6q-43" target="1II-Uo7MVgOibuzqTC6q-48">
          <mxGeometry relative="1" as="geometry" />
        </mxCell>
        <mxCell id="1II-Uo7MVgOibuzqTC6q-43" value="develop menu systems" style="whiteSpace=wrap;html=1;rounded=1;shadow=0;strokeWidth=1;glass=0;arcSize=0;" vertex="1" parent="WIyWlLk6GJQsqaUBKTNV-1">
          <mxGeometry x="160" y="830" width="120" height="60" as="geometry" />
        </mxCell>
        <mxCell id="1II-Uo7MVgOibuzqTC6q-47" style="edgeStyle=orthogonalEdgeStyle;rounded=0;orthogonalLoop=1;jettySize=auto;html=1;entryX=0.886;entryY=0.997;entryDx=0;entryDy=0;entryPerimeter=0;" edge="1" parent="WIyWlLk6GJQsqaUBKTNV-1" source="1II-Uo7MVgOibuzqTC6q-45" target="1II-Uo7MVgOibuzqTC6q-40">
          <mxGeometry relative="1" as="geometry">
            <Array as="points">
              <mxPoint x="220" y="1190" />
              <mxPoint x="846" y="1190" />
            </Array>
          </mxGeometry>
        </mxCell>
        <mxCell id="1II-Uo7MVgOibuzqTC6q-45" value="bugs found" style="whiteSpace=wrap;html=1;rounded=1;shadow=0;strokeWidth=1;glass=0;arcSize=0;" vertex="1" parent="WIyWlLk6GJQsqaUBKTNV-1">
          <mxGeometry x="160" y="1110" width="120" height="60" as="geometry" />
        </mxCell>
        <mxCell id="1II-Uo7MVgOibuzqTC6q-51" value="" style="edgeStyle=orthogonalEdgeStyle;rounded=0;orthogonalLoop=1;jettySize=auto;html=1;" edge="1" parent="WIyWlLk6GJQsqaUBKTNV-1" source="1II-Uo7MVgOibuzqTC6q-48" target="1II-Uo7MVgOibuzqTC6q-50">
          <mxGeometry relative="1" as="geometry" />
        </mxCell>
        <mxCell id="1II-Uo7MVgOibuzqTC6q-55" value="" style="edgeStyle=orthogonalEdgeStyle;rounded=0;orthogonalLoop=1;jettySize=auto;html=1;" edge="1" parent="WIyWlLk6GJQsqaUBKTNV-1" source="1II-Uo7MVgOibuzqTC6q-48" target="1II-Uo7MVgOibuzqTC6q-54">
          <mxGeometry relative="1" as="geometry" />
        </mxCell>
        <mxCell id="1II-Uo7MVgOibuzqTC6q-48" value="Test menu systems" style="whiteSpace=wrap;html=1;rounded=1;shadow=0;strokeWidth=1;glass=0;arcSize=0;" vertex="1" parent="WIyWlLk6GJQsqaUBKTNV-1">
          <mxGeometry x="-40" y="830" width="120" height="60" as="geometry" />
        </mxCell>
        <mxCell id="1II-Uo7MVgOibuzqTC6q-53" value="" style="edgeStyle=orthogonalEdgeStyle;rounded=0;orthogonalLoop=1;jettySize=auto;html=1;" edge="1" parent="WIyWlLk6GJQsqaUBKTNV-1" source="1II-Uo7MVgOibuzqTC6q-50" target="1II-Uo7MVgOibuzqTC6q-52">
          <mxGeometry relative="1" as="geometry" />
        </mxCell>
        <mxCell id="1II-Uo7MVgOibuzqTC6q-50" value="positive feed back" style="whiteSpace=wrap;html=1;rounded=1;shadow=0;strokeWidth=1;glass=0;arcSize=0;" vertex="1" parent="WIyWlLk6GJQsqaUBKTNV-1">
          <mxGeometry x="-40" y="970" width="120" height="60" as="geometry" />
        </mxCell>
        <mxCell id="1II-Uo7MVgOibuzqTC6q-60" style="edgeStyle=orthogonalEdgeStyle;rounded=0;orthogonalLoop=1;jettySize=auto;html=1;" edge="1" parent="WIyWlLk6GJQsqaUBKTNV-1" source="1II-Uo7MVgOibuzqTC6q-52" target="1II-Uo7MVgOibuzqTC6q-45">
          <mxGeometry relative="1" as="geometry" />
        </mxCell>
        <mxCell id="1II-Uo7MVgOibuzqTC6q-62" value="" style="edgeStyle=orthogonalEdgeStyle;rounded=0;orthogonalLoop=1;jettySize=auto;html=1;" edge="1" parent="WIyWlLk6GJQsqaUBKTNV-1" source="1II-Uo7MVgOibuzqTC6q-52" target="1II-Uo7MVgOibuzqTC6q-61">
          <mxGeometry relative="1" as="geometry" />
        </mxCell>
        <mxCell id="1II-Uo7MVgOibuzqTC6q-52" value="Present current game" style="rounded=1;whiteSpace=wrap;html=1;shadow=0;strokeWidth=1;glass=0;arcSize=0;" vertex="1" parent="WIyWlLk6GJQsqaUBKTNV-1">
          <mxGeometry x="-40" y="1110" width="120" height="60" as="geometry" />
        </mxCell>
        <mxCell id="1II-Uo7MVgOibuzqTC6q-56" style="edgeStyle=orthogonalEdgeStyle;rounded=0;orthogonalLoop=1;jettySize=auto;html=1;entryX=0.5;entryY=0;entryDx=0;entryDy=0;" edge="1" parent="WIyWlLk6GJQsqaUBKTNV-1" source="1II-Uo7MVgOibuzqTC6q-54" target="1II-Uo7MVgOibuzqTC6q-43">
          <mxGeometry relative="1" as="geometry">
            <Array as="points">
              <mxPoint x="-180" y="780" />
              <mxPoint x="220" y="780" />
            </Array>
          </mxGeometry>
        </mxCell>
        <mxCell id="1II-Uo7MVgOibuzqTC6q-54" value="Negative feed&amp;nbsp; back" style="whiteSpace=wrap;html=1;rounded=1;shadow=0;strokeWidth=1;glass=0;arcSize=0;" vertex="1" parent="WIyWlLk6GJQsqaUBKTNV-1">
          <mxGeometry x="-240" y="830" width="120" height="60" as="geometry" />
        </mxCell>
        <mxCell id="1II-Uo7MVgOibuzqTC6q-59" style="edgeStyle=orthogonalEdgeStyle;rounded=0;orthogonalLoop=1;jettySize=auto;html=1;" edge="1" parent="WIyWlLk6GJQsqaUBKTNV-1" source="1II-Uo7MVgOibuzqTC6q-57" target="1II-Uo7MVgOibuzqTC6q-14">
          <mxGeometry relative="1" as="geometry" />
        </mxCell>
        <mxCell id="1II-Uo7MVgOibuzqTC6q-57" value="Sign off" style="whiteSpace=wrap;html=1;shadow=0;strokeWidth=1;spacing=6;spacingTop=-4;" vertex="1" parent="WIyWlLk6GJQsqaUBKTNV-1">
          <mxGeometry y="210" width="120" height="60" as="geometry" />
        </mxCell>
        <mxCell id="1II-Uo7MVgOibuzqTC6q-61" value="Happy days you are done" style="shape=parallelogram;perimeter=parallelogramPerimeter;whiteSpace=wrap;html=1;fixedSize=1;rounded=1;shadow=0;strokeWidth=1;glass=0;arcSize=0;" vertex="1" parent="WIyWlLk6GJQsqaUBKTNV-1">
          <mxGeometry x="-240" y="1110" width="120" height="60" as="geometry" />
        </mxCell>
      </root>
    </mxGraphModel>
  </diagram>
</mxfile>
